<svg width="119" height="124" viewBox="0 0 119 124" fill="none" xmlns="http://www.w3.org/2000/svg">
    <path d="M59.3269 123.232C92.0922 123.232 118.654 95.6453 118.654 61.6158C118.654 27.5863 92.0922 0 59.3269 0C26.5615 0 0 27.5863 0 61.6158C0 95.6453 26.5615 123.232 59.3269 123.232Z" fill="#F2F2F2" />
    <path d="M35.1145 37.5151C34.3003 42.0586 32.9651 46.4845 31.1375 50.6983C20.6722 73.6917 50.4755 66.197 61.1262 66.197C72.7712 66.197 83.913 72.5567 82.2112 44.2984C81.4844 32.2278 72.7711 22.3998 61.1262 22.3998C51.1795 22.3999 37.1944 26.9916 35.1145 37.5151Z" fill="#2F2E41" />
    <path d="M59.3813 66.1916C68.8442 66.1916 76.5154 58.2245 76.5154 48.3965C76.5154 38.5686 68.8442 30.6014 59.3813 30.6014C49.9185 30.6014 42.2473 38.5686 42.2473 48.3965C42.2473 58.2245 49.9185 66.1916 59.3813 66.1916Z" fill="#FFB6B6" />
    <path d="M47.7455 30.2569C50.7479 28.3559 54.1869 27.3276 57.703 27.2794C61.219 27.2313 64.683 28.1651 67.7326 29.9832C70.7822 31.8014 73.3055 34.437 75.0387 37.6146C76.7718 40.7923 77.6511 44.3951 77.5847 48.0465C68.854 50.3231 59.6819 52.0653 50.3713 48.591L48.1725 43.0021L46.8761 48.5952C44.0408 49.7988 41.198 50.8172 38.3552 48.5836C38.2391 44.9425 39.0453 41.3335 40.6932 38.1175C42.341 34.9014 44.7728 32.1909 47.7455 30.2569Z" fill="#2F2E41" />
    <path d="M105.456 102.587C95.1781 114.733 80.7131 122.194 65.184 123.36C49.6548 124.525 34.3071 119.302 22.4541 108.817L27.5427 94.0698C28.6926 91.4506 30.5073 89.2059 32.7922 87.5763C35.0771 85.9468 37.746 84.9939 40.5126 84.8198L43.7499 84.6134L51.469 77.699C51.469 77.699 72.268 76.9277 71.9594 76.5584L84.558 84.4288L84.5475 84.3744L89.5002 84.6895C92.267 84.8628 94.9362 85.8154 97.2212 87.445C99.5062 89.0746 101.321 91.3198 102.47 93.9395L105.456 102.587Z" fill="#4078C0" />
</svg>