<svg width="119" height="124" viewBox="0 0 119 124" fill="none" xmlns="http://www.w3.org/2000/svg">
<path d="M59.4262 123.233C92.1916 123.233 118.753 95.6462 118.753 61.6167C118.753 27.5873 92.1916 0.000915527 59.4262 0.000915527C26.6609 0.000915527 0.0993652 27.5873 0.0993652 61.6167C0.0993652 95.6462 26.6609 123.233 59.4262 123.233Z" fill="#F2F2F2"/>
<path d="M58.1204 68.0079C68.0606 68.0079 76.1187 59.6389 76.1187 49.3152C76.1187 38.9915 68.0606 30.6225 58.1204 30.6225C48.1802 30.6225 40.1221 38.9915 40.1221 49.3152C40.1221 59.6389 48.1802 68.0079 58.1204 68.0079Z" fill="#9E616A"/>
<path d="M103.171 102.299C92.8927 114.445 78.4277 121.906 62.8986 123.072C47.3694 124.238 32.0217 119.014 20.1687 108.529L25.2573 93.7822C26.4072 91.1629 28.2219 88.9182 30.5068 87.2887C32.7917 85.6591 35.4605 84.7062 38.2272 84.5322L41.4644 84.3258L49.1836 77.4114C49.1836 77.4114 69.9826 76.6401 69.674 76.2708L82.2726 84.1411L82.2621 84.0868L87.2148 84.4018C89.9816 84.5751 92.6508 85.5277 94.9358 87.1573C97.2208 88.787 99.0353 91.0321 100.185 93.6518L103.171 102.299Z" fill="#4078C0"/>
<path d="M41.7668 57.9573C41.7314 57.855 41.6992 57.7516 41.6642 57.6492C41.5949 57.7126 41.5285 57.778 41.4534 57.8372L41.7668 57.9573Z" fill="#2F2E41"/>
<path d="M79.6805 42.6652C79.5882 40.7685 79.1098 38.9136 78.277 37.2229C77.4441 35.5322 76.2757 34.044 74.8487 32.8564C73.7998 31.9949 72.5864 31.2673 71.8919 30.0804C71.4959 29.2401 71.1601 28.3706 70.8875 27.4789C69.5058 24.0633 65.5681 22.2481 62.0359 22.7653C58.5037 23.2825 55.4469 25.7501 53.3879 28.7754C52.3734 28.2705 51.2409 28.0782 50.1244 28.2211C49.008 28.364 47.9543 28.8362 47.0882 29.5818C46.2221 30.3274 45.5798 31.315 45.2375 32.428C44.8951 33.5409 44.867 34.7324 45.1564 35.8613C43.3273 34.331 40.3685 35.5551 39.2267 37.687C38.0849 39.8188 38.2661 42.4274 38.6056 44.8413C39.2206 49.204 40.245 53.4937 41.6643 57.6492C43.4453 56.0203 43.3359 53.0539 43.1182 50.5463C42.8921 47.9412 43.0276 44.7606 45.221 43.4751C47.3401 42.2332 49.9122 43.5967 52.2488 44.3019C54.0962 44.8453 56.035 44.9663 57.9318 44.6564C59.8285 44.3465 61.638 43.6133 63.2356 42.5071C64.4528 41.6517 65.5364 40.5804 66.8485 39.893C68.1606 39.2056 69.8303 38.9668 71.0519 39.8153C72.1675 40.5902 72.6212 42.0354 73.0008 43.3724C73.9004 46.5409 74.8001 49.7095 75.6997 52.8781C77.0204 51.5645 78.0581 49.9752 78.7442 48.2148C79.4304 46.4545 79.7495 44.563 79.6805 42.6652Z" fill="#2F2E41"/>
</svg>
