<svg width="119" height="124" viewBox="0 0 119 124" fill="none" xmlns="http://www.w3.org/2000/svg">
<path d="M118.654 61.6164C118.654 73.8029 115.174 85.7157 108.655 95.8483C102.136 105.981 92.8709 113.878 82.0303 118.542C71.1898 123.206 59.2611 124.426 47.7528 122.048C36.2445 119.671 25.6735 113.803 17.3765 105.185C9.07946 96.5683 3.42912 85.5894 1.13997 73.6371C-1.14917 61.6848 0.0257097 49.2959 4.51602 38.0371C9.00633 26.7782 16.6104 17.1552 26.3667 10.3848C36.1229 3.61432 47.5932 0.000607574 59.3269 0.000607574C67.1275 -0.0354494 74.8578 1.5337 82.0713 4.61741C89.2849 7.70113 95.8388 12.2383 101.355 17.9671C106.871 23.6958 111.239 30.5026 114.209 37.9945C117.178 45.4864 118.688 53.5148 118.654 61.6164Z" fill="#F2F2F2"/>
<path d="M83.5902 46.8736V46.8735L83.2966 47.4231C85.9094 40.7354 83.5336 32.4945 78.8725 27.4517C74.2117 22.409 67.732 20.1036 61.3516 19.1889C56.6152 18.51 51.6988 18.5296 47.1952 20.3315C40.6734 22.9408 35.6905 28.9813 31.5303 35.265C29.6273 38.1391 27.7563 41.4158 27.9459 45.0081C28.1219 48.3417 30.0272 51.1707 31.5875 53.999C33.1479 56.8274 34.451 60.3364 33.3311 63.4234C32.6638 65.2629 31.2534 66.5878 30.109 68.0926C28.9646 69.5975 28.0233 71.6315 28.5761 73.5196C28.8215 74.2419 29.2431 74.8858 29.7998 75.3883C30.3565 75.8908 31.0292 76.2347 31.7522 76.3864C33.1356 76.7212 34.5708 76.5024 35.9719 76.2825L72.3398 70.5759C74.811 70.1881 77.1553 69.1854 79.1728 67.6533C81.1903 66.1211 82.8211 64.105 83.9262 61.7768C85.0313 59.4486 85.5779 56.8774 85.5194 54.2824C85.4608 51.6873 84.799 49.1455 83.5902 46.8736Z" fill="#2F2E41"/>
<path d="M74.0905 54.8037C75.6635 44.7364 69.0807 35.2509 59.3874 33.6172C49.694 31.9835 40.5608 38.8203 38.9878 48.8876C37.4148 58.9549 43.9977 68.4405 53.691 70.0742C63.3843 71.7079 72.5175 64.8711 74.0905 54.8037Z" fill="#FFB9B9"/>
<path d="M103.874 102.299C93.5961 114.445 79.1311 121.906 63.6019 123.072C48.0727 124.238 32.7251 119.014 20.8721 108.529L25.9607 93.7822C27.1106 91.1629 28.9253 88.9182 31.2102 87.2887C33.4951 85.6591 36.1639 84.7062 38.9306 84.5322L42.1678 84.3258L49.887 77.4114C49.887 77.4114 70.6859 76.6401 70.3774 76.2708L82.976 84.1411L82.9655 84.0868L87.9181 84.4018C90.685 84.5751 93.3541 85.5277 95.6391 87.1573C97.9241 88.787 99.7387 91.0321 100.888 93.6518L103.874 102.299Z" fill="#4078C0"/>
<path d="M73.4049 34.7061C72.9459 32.1843 70.4694 31.0309 68.3476 30.472C62.193 28.8412 55.7908 28.476 49.5013 29.3972C44.9164 30.0763 40.2226 31.5737 36.8959 35.2905C34.2134 38.4201 32.6934 42.4407 32.6091 46.6299C32.4735 49.1347 33.0124 51.6292 34.1653 53.8337C35.3626 55.9382 37.4031 57.4647 39.5096 57.4111L39.7229 58.1816C48.6502 56.8898 56.9428 51.1209 62.1655 42.5692C61.1853 46.2043 59.2346 49.4771 56.539 52.0093C62.566 49.5047 67.8051 45.3112 71.6725 39.8961C72.7286 38.4403 73.754 36.6248 73.4049 34.7061Z" fill="#2F2E41"/>
</svg>
