<svg width="119" height="124" viewBox="0 0 119 124" fill="none" xmlns="http://www.w3.org/2000/svg">
<path d="M118.654 61.7251C118.633 73.9115 115.133 85.8179 108.597 95.9385C102.061 106.059 92.7816 113.94 81.9331 118.583C71.0846 123.227 59.1538 124.425 47.6496 122.026C36.1454 119.628 25.5844 113.74 17.3021 105.107C9.01986 96.4751 3.38828 85.4858 1.11955 73.5293C-1.14919 61.5728 0.0468349 49.1861 4.55636 37.9356C9.06588 26.685 16.6864 17.076 26.4542 10.3235C36.222 3.57106 47.6983 -0.0215089 59.4321 9.68826e-05C67.2287 -0.00655941 74.9497 1.58706 82.1515 4.68937C89.3532 7.79167 95.8936 12.3415 101.397 18.0774C106.9 23.8133 111.258 30.6221 114.219 38.1127C117.181 45.6032 118.688 53.6277 118.654 61.7251Z" fill="#F2F2F2"/>
<path d="M31.8293 41.5722C34.2824 33.4525 39.861 26.0054 47.5759 23.2605C55.2914 20.5156 66.5887 24.697 72.389 30.7007C82.9988 41.6826 85.588 79.4095 78.2986 91.3316C76.8487 91.2519 71.8457 91.193 70.3783 91.1359L68.3024 83.9501V91.065C65.9645 90.99 63.6084 90.9382 61.2339 90.9096C53.2729 90.8071 45.6602 87.5029 39.9962 81.6918C34.3322 75.8806 31.0582 68.0151 30.8624 59.7487C30.6724 51.8408 30.8626 44.772 31.8293 41.5722Z" fill="#2F2E41"/>
<path d="M58.4471 68.4829C67.7849 68.4829 75.3548 60.621 75.3548 50.9228C75.3548 41.2246 67.7849 33.3627 58.4471 33.3627C49.1092 33.3627 41.5393 41.2246 41.5393 50.9228C41.5393 60.621 49.1092 68.4829 58.4471 68.4829Z" fill="#9E616A"/>
<path d="M43.855 35.5008L63.3226 25.3768C67.3027 27.2395 70.7304 30.1741 73.2504 33.8763C75.7704 37.5785 77.2908 41.9136 77.654 46.4317L78.1392 52.4683L69.9871 50.313L69.094 42.5941L67.7096 49.7109L63.9475 48.7168L63.9833 36.7332L60.2188 48.7082L46.7821 45.5021L43.855 35.5008Z" fill="#2F2E41"/>
<path d="M103.351 102.391C93.0731 114.537 78.6081 121.998 63.079 123.164C47.5498 124.329 32.2021 119.106 20.3491 108.621L25.4377 93.874C26.5877 91.2547 28.4024 89.01 30.6872 87.3805C32.9721 85.7509 35.641 84.798 38.4076 84.624L41.6449 84.4176L49.3641 77.5032C49.3641 77.5032 70.163 76.7319 69.8544 76.3625L82.453 84.2329L82.4426 84.1786L87.3952 84.4936C90.162 84.6669 92.8312 85.6195 95.1162 87.2491C97.4012 88.8788 99.2158 91.1239 100.365 93.7436L103.351 102.391Z" fill="#4078C0"/>
</svg>
