<svg width="119" height="124" viewBox="0 0 119 124" fill="none" xmlns="http://www.w3.org/2000/svg">
<path d="M59.3269 123.232C92.0922 123.232 118.654 95.6453 118.654 61.6158C118.654 27.5863 92.0922 0 59.3269 0C26.5615 0 0 27.5863 0 61.6158C0 95.6453 26.5615 123.232 59.3269 123.232Z" fill="#F2F2F2"/>
<path d="M57.6895 69.2486C68.1485 69.2486 76.6272 60.4428 76.6272 49.5802C76.6272 38.7176 68.1485 29.9118 57.6895 29.9118C47.2304 29.9118 38.7517 38.7176 38.7517 49.5802C38.7517 60.4428 47.2304 69.2486 57.6895 69.2486Z" fill="#FFB6B6"/>
<path d="M103.835 102.841C93.557 114.988 79.092 122.449 63.5629 123.615C48.0337 124.78 32.686 119.557 20.833 109.071L25.9216 94.3248C27.0715 91.7055 28.8862 89.4608 31.1711 87.8313C33.456 86.2017 36.1249 85.2488 38.8915 85.0748L42.1288 84.8684L49.8479 77.954C49.8479 77.954 70.6469 77.1827 70.3383 76.8134L82.9369 84.6837L82.9264 84.6294L87.8791 84.9444C90.6459 85.1177 93.3151 86.0703 95.6001 87.6999C97.8851 89.3296 99.6996 91.5747 100.849 94.1944L103.835 102.841Z" fill="#4078C0"/>
<path d="M77.6626 37.3823C76.0623 31.4334 72.4264 26.2958 67.4375 22.9336C63.4616 20.2925 58.5003 18.9441 53.996 20.3408C49.4917 21.7376 45.7625 26.3285 46.0574 31.2888C44.4315 30.7142 42.5831 31.4787 41.393 32.7848C40.2028 34.091 39.5628 35.848 39.1045 37.5969C37.6591 43.1583 37.7549 49.0306 39.3808 54.5379L39.2913 55.3284C41.4889 54.9508 43.1557 52.9926 44.1922 50.9062C45.2287 48.8199 45.8251 46.5052 46.9485 44.4699C48.0719 42.4345 49.9375 40.6189 52.1629 40.5554L51.9668 44.0884C53.8814 43.0639 55.7961 42.0394 57.7108 41.0148C57.2553 42.1463 56.7999 43.2778 56.3445 44.4093C58.0166 43.6834 59.6887 42.9576 61.3608 42.2317C61.1739 43.3197 60.987 44.4078 60.8 45.4957C62.4584 41.5756 67.5868 39.8535 71.0755 42.0452C73.1016 43.3182 74.4308 45.5867 75.13 47.969C75.8293 50.3513 75.9675 52.8714 76.101 55.3621C78.6847 49.7584 79.2391 43.3758 77.6626 37.3823Z" fill="#2F2E41"/>
</svg>
