<svg width="119" height="124" viewBox="0 0 119 124" fill="none" xmlns="http://www.w3.org/2000/svg">
<path d="M59.3269 123.232C92.0922 123.232 118.654 95.6453 118.654 61.6158C118.654 27.5863 92.0922 0 59.3269 0C26.5615 0 0 27.5863 0 61.6158C0 95.6453 26.5615 123.232 59.3269 123.232Z" fill="#F2F2F2"/>
<path d="M59.8569 64.1846C72.9226 64.1846 83.5145 53.1841 83.5145 39.6142C83.5145 26.0444 72.9226 15.0438 59.8569 15.0438C46.7911 15.0438 36.1992 26.0444 36.1992 39.6142C36.1992 53.1841 46.7911 64.1846 59.8569 64.1846Z" fill="#2F2E41"/>
<path d="M59.8666 67.4123C71.5388 67.4123 81.001 57.5851 81.001 45.4626C81.001 33.34 71.5388 23.5128 59.8666 23.5128C48.1944 23.5128 38.7322 33.34 38.7322 45.4626C38.7322 57.5851 48.1944 67.4123 59.8666 67.4123Z" fill="#FFB8B8"/>
<path d="M103.673 102.102C93.3947 114.249 78.9297 121.71 63.4005 122.876C47.8713 124.041 32.5237 118.818 20.6707 108.332L25.7592 93.5857C26.9092 90.9665 28.7239 88.7218 31.0088 87.0922C33.2936 85.4627 35.9625 84.5098 38.7292 84.3358L41.9664 84.1294L49.6856 77.215C49.6856 77.215 70.4845 76.4437 70.176 76.0743L82.7746 83.9447L82.7641 83.8904L87.7167 84.2054C90.4836 84.3787 93.1527 85.3313 95.4377 86.9609C97.7227 88.5906 99.5373 90.8357 100.687 93.4554L103.673 102.102Z" fill="#4078C0"/>
<path d="M82.1637 37.7647C82.312 36.1259 82.3799 34.4803 82.3673 32.8344C82.4536 29.5791 81.8794 26.3415 80.6818 23.3318C79.209 19.9995 76.5829 17.3647 73.3254 15.9509C70.0967 14.5984 66.4883 14.6016 63.2619 15.96C60.3489 14.0486 57.1123 12.5333 53.7038 12.3456C50.2952 12.1579 46.6913 13.4713 44.5908 16.3623C44.1217 17.1254 43.589 17.8443 42.9987 18.5105C41.3102 20.1344 38.7442 19.9002 36.4999 19.5681C37.5065 20.4642 38.5133 21.3602 39.5205 22.2562C38.302 22.5868 37.0834 22.9174 35.8647 23.248C37.2867 24.1437 38.7087 25.0394 40.1304 25.9352C36.0024 28.5085 34.1261 34.1251 34.6218 39.2263C35.0906 44.0558 37.3357 48.4721 40.0194 52.3974C41.09 50.0511 40.8593 47.2434 40.8417 44.6007C40.8319 43.7435 40.8822 42.8868 40.9923 42.0372C50.0622 44.2952 59.5391 45.7444 69.1498 42.1581L71.0784 37.2557C71.3491 37.2846 71.6199 37.3117 71.8904 37.3416L73.0078 42.1627C75.5411 43.2381 78.0797 44.178 80.6193 43.1903C80.7429 43.935 80.8173 44.695 80.8745 45.4254C81.0924 44.5517 81.2815 43.6715 81.452 42.7878C81.7877 42.6008 82.1091 42.3876 82.4136 42.1499C82.4749 40.6831 82.3912 39.2137 82.1637 37.7647Z" fill="#2F2E41"/>
</svg>
