<svg width="119" height="124" viewBox="0 0 119 124" fill="none" xmlns="http://www.w3.org/2000/svg">
<path d="M59.3269 123.232C92.0922 123.232 118.654 95.6453 118.654 61.6158C118.654 27.5863 92.0922 0 59.3269 0C26.5615 0 0 27.5863 0 61.6158C0 95.6453 26.5615 123.232 59.3269 123.232Z" fill="#F2F2F2"/>
<path d="M43.0356 38.4956C47.6615 38.4956 51.4116 34.6008 51.4116 29.7965C51.4116 24.9921 47.6615 21.0974 43.0356 21.0974C38.4097 21.0974 34.6597 24.9921 34.6597 29.7965C34.6597 34.6008 38.4097 38.4956 43.0356 38.4956Z" fill="#2F2E41"/>
<path d="M56.4371 71.5522C68.1561 71.5522 77.6562 61.6856 77.6562 49.5144C77.6562 37.3433 68.1561 27.4767 56.4371 27.4767C44.7181 27.4767 35.218 37.3433 35.218 49.5144C35.218 61.6856 44.7181 71.5522 56.4371 71.5522Z" fill="#2F2E41"/>
<path d="M58.1928 71.5467C67.7158 71.5467 75.4357 63.529 75.4357 53.6386C75.4357 43.7482 67.7158 35.7304 58.1928 35.7304C48.6699 35.7304 40.95 43.7482 40.95 53.6386C40.95 63.529 48.6699 71.5467 58.1928 71.5467Z" fill="#9E616A"/>
<path d="M69.9027 35.3837C66.8812 33.4706 63.4203 32.4357 59.8819 32.3873C56.3435 32.3388 52.8576 33.2786 49.7886 35.1083C46.7196 36.9379 44.1802 39.5904 42.4361 42.7882C40.6919 45.986 39.807 49.6117 39.8739 53.2863C48.66 55.5773 57.8904 57.3306 67.2602 53.8343L69.473 48.2098L70.7775 53.8385C73.6309 55.0498 76.4917 56.0747 79.3525 53.8268C79.4693 50.1626 78.658 46.5307 76.9997 43.2942C75.3414 40.0577 72.8942 37.33 69.9027 35.3837Z" fill="#2F2E41"/>
<path d="M35.2369 6.18159C29.445 3.42343 22.1777 4.71766 17.355 9.04258C12.5323 13.3675 10.2396 20.4064 11.1706 26.953C12.1204 33.6314 16.0297 39.3825 19.6331 45.0011C23.2366 50.6197 26.757 56.7765 26.7529 63.5274C26.7501 68.3898 24.8906 73.0525 21.5824 76.4931C18.2742 79.9337 13.7872 81.8712 9.10547 81.8809C14.6002 84.3377 20.3353 86.8427 26.3111 86.5514C32.2869 86.2602 38.5504 82.2703 39.5252 76.1402C40.2275 71.7232 38.141 67.4161 36.4007 63.3203C33.5662 56.6465 31.5173 49.6418 30.2986 42.4581C29.7174 39.0295 29.3389 35.425 30.4152 32.128C31.2723 29.6848 32.8626 27.5923 34.9516 26.1591C37.0407 24.7259 39.5179 24.0278 42.018 24.1678L43.9925 22.3229C44.8708 15.7684 41.0289 8.93971 35.2369 6.18159Z" fill="#2F2E41"/>
<path d="M103.966 102.841C93.6876 114.988 79.2226 122.449 63.6935 123.615C48.1643 124.78 32.8166 119.557 20.9636 109.071L26.0522 94.3248C27.2022 91.7055 29.0169 89.4608 31.3017 87.8313C33.5866 86.2017 36.2555 85.2488 39.0221 85.0748L42.2594 84.8684L49.9786 77.954C49.9786 77.954 70.7775 77.1827 70.4689 76.8134L83.0675 84.6837L83.0571 84.6294L88.0097 84.9444C90.7765 85.1177 93.4457 86.0703 95.7307 87.6999C98.0157 89.3296 99.8302 91.5747 100.98 94.1944L103.966 102.841Z" fill="#4078C0"/>
</svg>
